ffmpeg version N-82167-g5e96558 Copyright (c) 2000-2016 the FFmpeg developers
  built with gcc 5.4.0 (Ubuntu 5.4.0-6ubuntu1~16.04.2) 20160609
  configuration: --prefix=/root/ffmpeg_build --pkg-config-flags=--static --extra-cflags=-I/root/ffmpeg_build/include --extra-ldflags=-L/root/ffmpeg_build/lib --bindir=/root/bin --enable-gpl --enable-libass --enable-libfdk-aac --enable-libfreetype --enable-libmp3lame --enable-libopus --enable-libtheora --enable-libvorbis --enable-libx264 --enable-libx265 --enable-nonfree
  libavutil      55. 35.100 / 55. 35.100
  libavcodec     57. 65.100 / 57. 65.100
  libavformat    57. 57.100 / 57. 57.100
  libavdevice    57.  2.100 / 57.  2.100
  libavfilter     6. 66.100 /  6. 66.100
  libswscale      4.  3.100 /  4.  3.100
  libswresample   2.  4.100 /  2.  4.100
  libpostproc    54.  2.100 / 54.  2.100
Input #0, matroska,webm, from '/media/yubikiri/bot/queue/3AnimePahe_Detective_Conan_-_029_720p_Fansub.mkv':
  Metadata:
    title           : 3|Text||0|0
    ENCODER         : Lavf57.57.100
  Duration: 00:24:29.89, start: 0.000000, bitrate: 957 kb/s
    Stream #0:0: Video: mpeg4 (Simple Profile), yuv420p, 640x480 [SAR 1:1 DAR 4:3], 23.98 fps, 23.98 tbr, 1k tbn, 23.98 tbc (default)
    Metadata:
      DURATION        : 00:24:29.887000000
    Stream #0:1: Audio: mp3, 48000 Hz, stereo, s16p, 112 kb/s (default)
    Metadata:
      DURATION        : 00:24:29.760000000
[libx264 @ 0x41894c0] using SAR=1/1
[libx264 @ 0x41894c0] using cpu capabilities: MMX2 SSE2Fast SSSE3 SSE4.2 AVX FMA3 AVX2 LZCNT BMI2
[libx264 @ 0x41894c0] profile High, level 3.1
[libx264 @ 0x41894c0] 264 - core 148 r2643 5c65704 - H.264/MPEG-4 AVC codec - Copyleft 2003-2015 - http://www.videolan.org/x264.html - options: cabac=1 ref=8 deblock=1:1:1 analyse=0x3:0x133 me=umh subme=7 psy=1 psy_rd=0.00:0.00 mixed_ref=1 me_range=8 chroma_me=1 trellis=0 8x8dct=1 cqm=0 deadzone=21,11 fast_pskip=1 chroma_qp_offset=0 threads=8 lookahead_threads=2 sliced_threads=0 nr=0 decimate=1 interlaced=0 bluray_compat=0 constrained_intra=0 bframes=3 b_pyramid=2 b_adapt=2 b_bias=0 direct=1 weightb=1 open_gop=0 weightp=2 keyint=240 keyint_min=24 scenecut=40 intra_refresh=0 rc_lookahead=60 rc=crf mbtree=1 crf=27.0 qcomp=0.60 qpmin=0 qpmax=69 qpstep=4 ip_ratio=1.40 aq=1:1.00
[libfdk_aac @ 0x40fea60] Note, the VBR setting is unsupported and only works with some parameter combinations
Output #0, mp4, to '/media/yubikiri/bot/queue/3AnimePahe_Detective_Conan_-_029_720p_Fansub.mkv_encoded.mp4':
  Metadata:
    encoder         : Lavf57.57.100
    Stream #0:0: Video: h264 (libx264) ([33][0][0][0] / 0x0021), yuv420p, 640x480 [SAR 1:1 DAR 4:3], q=-1--1, 23.98 fps, 11988 tbn, 23.98 tbc (default)
    Metadata:
      encoder         : Lavc57.65.100 libx264
    Side data:
      cpb: bitrate max/min/avg: 0/0/0 buffer size: 0 vbv_delay: -1
    Stream #0:1: Audio: aac (libfdk_aac) (HE-AACv2) ([64][0][0][0] / 0x0040), 48000 Hz, stereo, s16, 48 kb/s (default)
    Metadata:
      encoder         : Lavc57.65.100 libfdk_aac
Stream mapping:
  Stream #0:0 -> #0:0 (mpeg4 (native) -> h264 (libx264))
  Stream #0:1 -> #0:1 (mp3 (native) -> aac (libfdk_aac))
Press [q] to stop, [?] for help
frame=  144 fps=0.0 q=32.0 size=     130kB time=00:00:06.16 bitrate= 172.4kbits/s dup=1 drop=0 speed=12.3x    frame=  265 fps=265 q=32.0 size=     270kB time=00:00:11.20 bitrate= 197.2kbits/s dup=1 drop=0 speed=11.2x    frame=  354 fps=236 q=32.0 size=     465kB time=00:00:14.91 bitrate= 255.2kbits/s dup=1 drop=0 speed=9.92x    frame=  464 fps=230 q=32.0 size=     649kB time=00:00:19.52 bitrate= 272.4kbits/s dup=1 drop=0 speed=9.68x    frame=  555 fps=220 q=32.0 size=     800kB time=00:00:23.31 bitrate= 281.0kbits/s dup=1 drop=0 speed=9.26x    frame=  622 fps=206 q=32.0 size=     982kB time=00:00:26.09 bitrate= 308.2kbits/s dup=1 drop=0 speed=8.64x    frame=  694 fps=193 q=32.0 size=    1196kB time=00:00:29.12 bitrate= 336.5kbits/s dup=1 drop=0 speed=8.08x    frame=  725 fps=177 q=32.0 size=    1253kB time=00:00:30.40 bitrate= 337.7kbits/s dup=1 drop=0 speed=7.41x    frame=  755 fps=164 q=32.0 size=    1366kB time=00:00:31.63 bitrate= 353.6kbits/s dup=1 drop=0 speed=6.86x    frame=  793 fps=155 q=32.0 size=    1539kB time=00:00:33.25 bitrate= 379.0kbits/s dup=1 drop=0 speed=6.49x    frame=  833 fps=148 q=32.0 size=    1779kB time=00:00:34.88 bitrate= 417.8kbits/s dup=1 drop=0 speed=6.19x    frame=  878 fps=143 q=32.0 size=    2027kB time=00:00:36.75 bitrate= 451.8kbits/s dup=1 drop=0 speed=5.98x    frame=  934 fps=140 q=32.0 size=    2225kB time=00:00:39.10 bitrate= 466.1kbits/s dup=1 drop=0 speed=5.87x    frame=  999 fps=140 q=32.0 size=    2416kB time=00:00:41.83 bitrate= 473.0kbits/s dup=1 drop=0 speed=5.84x    frame= 1076 fps=140 q=32.0 size=    2623kB time=00:00:45.03 bitrate= 477.2kbits/s dup=1 drop=0 speed=5.88x    frame= 1152 fps=141 q=32.0 size=    2832kB time=00:00:48.23 bitrate= 481.0kbits/s dup=1 drop=0 speed=5.91x    frame= 1204 fps=139 q=32.0 size=    3082kB time=00:00:50.36 bitrate= 501.3kbits/s dup=1 drop=0 speed=5.81x    frame= 1260 fps=137 q=32.0 size=    3324kB time=00:00:52.71 bitrate= 516.5kbits/s dup=1 drop=0 speed=5.75x    frame= 1353 fps=140 q=32.0 size=    3527kB time=00:00:56.59 bitrate= 510.5kbits/s dup=1 drop=0 speed=5.85x    frame= 1411 fps=139 q=32.0 size=    3787kB time=00:00:59.03 bitrate= 525.6kbits/s dup=1 drop=0 speed= 5.8x    frame= 1462 fps=137 q=32.0 size=    3989kB time=00:01:01.12 bitrate= 534.7kbits/s dup=1 drop=0 speed=5.72x    frame= 1533 fps=137 q=32.0 size=    4230kB time=00:01:04.10 bitrate= 540.5kbits/s dup=1 drop=0 speed=5.73x    frame= 1608 fps=138 q=32.0 size=    4408kB time=00:01:07.26 bitrate= 536.8kbits/s dup=1 drop=0 speed=5.75x    frame= 1669 fps=137 q=32.0 size=    4612kB time=00:01:09.78 bitrate= 541.4kbits/s dup=1 drop=0 speed=5.72x    frame= 1736 fps=136 q=32.0 size=    4823kB time=00:01:12.55 bitrate= 544.5kbits/s dup=1 drop=0 speed= 5.7x    frame= 1788 fps=135 q=32.0 size=    5050kB time=00:01:14.73 bitrate= 553.6kbits/s dup=1 drop=0 speed=5.64x    frame= 1831 fps=133 q=32.0 size=    5273kB time=00:01:16.52 bitrate= 564.5kbits/s dup=1 drop=0 speed=5.56x    frame= 1882 fps=132 q=32.0 size=    5503kB time=00:01:18.65 bitrate= 573.1kbits/s dup=1 drop=0 speed= 5.5x    frame= 1938 fps=131 q=32.0 size=    5677kB time=00:01:21.00 bitrate= 574.1kbits/s dup=1 drop=0 speed=5.47x    frame= 2017 fps=132 q=32.0 size=    5828kB time=00:01:24.28 bitrate= 566.4kbits/s dup=1 drop=0 speed=5.51x    frame= 2106 fps=133 q=32.0 size=    5974kB time=00:01:28.00 bitrate= 556.1kbits/s dup=1 drop=0 speed=5.54x    frame= 2274 fps=139 q=32.0 size=    6149kB time=00:01:34.99 bitrate= 530.2kbits/s dup=1 drop=0 speed= 5.8x    frame= 2451 fps=145 q=32.0 size=    6265kB time=00:01:42.37 bitrate= 501.3kbits/s dup=1 drop=0 speed=6.06x    frame= 2526 fps=145 q=32.0 size=    6454kB time=00:01:45.49 bitrate= 501.2kbits/s dup=1 drop=0 speed=6.07x    frame= 2606 fps=145 q=32.0 size=    6679kB time=00:01:48.82 bitrate= 502.8kbits/s dup=1 drop=0 speed=6.07x    frame= 2691 fps=146 q=32.0 size=    6872kB time=00:01:52.40 bitrate= 500.8kbits/s dup=1 drop=0 speed= 6.1x    frame= 2775 fps=147 q=32.0 size=    6965kB time=00:01:55.90 bitrate= 492.3kbits/s dup=1 drop=0 speed=6.12x    frame= 2848 fps=146 q=32.0 size=    7083kB time=00:01:58.93 bitrate= 487.9kbits/s dup=1 drop=0 speed=6.12x    frame= 2935 fps=147 q=32.0 size=    7208kB time=00:02:02.56 bitrate= 481.8kbits/s dup=1 drop=0 speed=6.14x    frame= 3012 fps=147 q=32.0 size=    7311kB time=00:02:05.80 bitrate= 476.0kbits/s dup=1 drop=0 speed=6.14x    frame= 3089 fps=147 q=32.0 size=    7414kB time=00:02:09.00 bitrate= 470.8kbits/s dup=1 drop=0 speed=6.15x    frame= 3148 fps=147 q=32.0 size=    7496kB time=00:02:11.43 bitrate= 467.2kbits/s dup=1 drop=0 speed=6.12x    frame= 3206 fps=146 q=32.0 size=    7654kB time=00:02:13.86 bitrate= 468.4kbits/s dup=1 drop=0 speed=6.09x    frame= 3279 fps=146 q=32.0 size=    7740kB time=00:02:16.89 bitrate= 463.1kbits/s dup=1 drop=0 speed=6.09x    frame= 3361 fps=146 q=32.0 size=    7828kB time=00:02:20.35 bitrate= 456.9kbits/s dup=1 drop=0 speed=6.11x    frame= 3431 fps=146 q=32.0 size=    7925kB time=00:02:23.25 bitrate= 453.2kbits/s dup=1 drop=0 speed= 6.1x    frame= 3481 fps=145 q=32.0 size=    8049kB time=00:02:25.38 bitrate= 453.5kbits/s dup=1 drop=0 speed=6.06x    frame= 3541 fps=145 q=32.0 size=    8173kB time=00:02:27.81 bitrate= 452.9kbits/s dup=1 drop=0 speed=6.03x    frame= 3588 fps=144 q=32.0 size=    8290kB time=00:02:29.82 bitrate= 453.3kbits/s dup=1 drop=0 speed=5.99x    frame= 3646 fps=143 q=32.0 size=    8424kB time=00:02:32.21 bitrate= 453.4kbits/s dup=1 drop=0 speed=5.97x    frame= 3729 fps=143 q=32.0 size=    8553kB time=00:02:35.67 bitrate= 450.1kbits/s dup=1 drop=0 speed=5.98x    frame= 3801 fps=143 q=32.0 size=    8662kB time=00:02:38.69 bitrate= 447.1kbits/s dup=1 drop=0 speed=5.98x    frame= 3886 fps=144 q=32.0 size=    8775kB time=00:02:42.24 bitrate= 443.1kbits/s dup=1 drop=0 speed=   6x    frame= 3974 fps=144 q=32.0 size=    8891kB time=00:02:45.91 bitrate= 439.0kbits/s dup=1 drop=0 speed=6.02x    frame= 4064 fps=145 q=32.0 size=    9002kB time=00:02:49.66 bitrate= 434.6kbits/s dup=1 drop=0 speed=6.05x    frame= 4142 fps=145 q=32.0 size=    9057kB time=00:02:52.90 bitrate= 429.1kbits/s dup=1 drop=0 speed=6.05x    frame= 4201 fps=145 q=32.0 size=    9161kB time=00:02:55.38 bitrate= 427.9kbits/s dup=1 drop=0 speed=6.03x    frame= 4265 fps=144 q=32.0 size=    9294kB time=00:02:58.07 bitrate= 427.6kbits/s dup=1 drop=0 speed=6.02x    frame= 4324 fps=144 q=32.0 size=    9428kB time=00:03:00.50 bitrate= 427.9kbits/s dup=1 drop=0 speed=   6x    frame= 4385 fps=143 q=32.0 size=    9571kB time=00:03:03.06 bitrate= 428.3kbits/s dup=1 drop=0 speed=5.99x    frame= 4451 fps=143 q=32.0 size=    9715kB time=00:03:05.79 bitrate= 428.4kbits/s dup=1 drop=0 speed=5.98x    frame= 4527 fps=143 q=32.0 size=    9809kB time=00:03:08.95 bitrate= 425.3kbits/s dup=1 drop=0 speed=5.98x    frame= 4598 fps=143 q=32.0 size=    9910kB time=00:03:11.93 bitrate= 423.0kbits/s dup=1 drop=0 speed=5.98x    frame= 4661 fps=143 q=32.0 size=   10009kB time=00:03:14.58 bitrate= 421.4kbits/s dup=1 drop=0 speed=5.96x    frame= 4724 fps=143 q=32.0 size=   10140kB time=00:03:17.18 bitrate= 421.3kbits/s dup=1 drop=0 speed=5.95x    frame= 4795 fps=142 q=32.0 size=   10311kB time=00:03:20.17 bitrate= 422.0kbits/s dup=1 drop=0 speed=5.95x    frame= 4865 fps=142 q=32.0 size=   10424kB time=00:03:23.07 bitrate= 420.5kbits/s dup=1 drop=0 speed=5.95x    frame= 4951 fps=143 q=32.0 size=   10550kB time=00:03:26.65 bitrate= 418.2kbits/s dup=1 drop=0 speed=5.96x    frame= 5029 fps=143 q=32.0 size=   10632kB time=00:03:29.89 bitrate= 414.9kbits/s dup=1 drop=0 speed=5.97x    frame= 5103 fps=143 q=32.0 size=   10772kB time=00:03:33.01 bitrate= 414.3kbits/s dup=1 drop=0 speed=5.97x    frame= 5183 fps=143 q=32.0 size=   10927kB time=00:03:36.34 bitrate= 413.8kbits/s dup=1 drop=0 speed=5.98x    frame= 5258 fps=143 q=32.0 size=   11030kB time=00:03:39.45 bitrate= 411.7kbits/s dup=1 drop=0 speed=5.98x    frame= 5341 fps=144 q=32.0 size=   11136kB time=00:03:42.91 bitrate= 409.2kbits/s dup=1 drop=0 speed=   6x    frame= 5400 fps=143 q=32.0 size=   11239kB time=00:03:45.38 bitrate= 408.5kbits/s dup=1 drop=0 speed=5.98x    frame= 5471 fps=143 q=32.0 size=   11345kB time=00:03:48.33 bitrate= 407.0kbits/s dup=1 drop=0 speed=5.98x    frame= 5546 fps=143 q=32.0 size=   11443kB time=00:03:51.48 bitrate= 404.9kbits/s dup=1 drop=0 speed=5.98x    frame= 5607 fps=143 q=32.0 size=   11558kB time=00:03:54.00 bitrate= 404.6kbits/s dup=1 drop=0 speed=5.97x    frame= 5680 fps=143 q=32.0 size=   11657kB time=00:03:57.07 bitrate= 402.8kbits/s dup=1 drop=0 speed=5.97x    frame= 5750 fps=143 q=32.0 size=   11749kB time=00:03:59.97 bitrate= 401.1kbits/s dup=1 drop=0 speed=5.96x    frame= 5830 fps=143 q=32.0 size=   11830kB time=00:04:03.30 bitrate= 398.3kbits/s dup=1 drop=0 speed=5.97x    frame= 5912 fps=143 q=32.0 size=   11936kB time=00:04:06.76 bitrate= 396.2kbits/s dup=1 drop=0 speed=5.98x    frame= 5971 fps=143 q=32.0 size=   12015kB time=00:04:09.19 bitrate= 395.0kbits/s dup=1 drop=0 speed=5.97x    frame= 6021 fps=142 q=32.0 size=   12101kB time=00:04:11.28 bitrate= 394.5kbits/s dup=1 drop=0 speed=5.94x    frame= 6069 fps=142 q=32.0 size=   12167kB time=00:04:13.29 bitrate= 393.5kbits/s dup=1 drop=0 speed=5.92x    frame= 6156 fps=142 q=32.0 size=   12242kB time=00:04:16.91 bitrate= 390.3kbits/s dup=1 drop=0 speed=5.94x    frame= 6217 fps=142 q=32.0 size=   12315kB time=00:04:19.47 bitrate= 388.8kbits/s dup=1 drop=0 speed=5.93x    frame= 6280 fps=142 q=32.0 size=   12401kB time=00:04:22.08 bitrate= 387.6kbits/s dup=1 drop=0 speed=5.92x    frame= 6352 fps=142 q=32.0 size=   12494kB time=00:04:25.06 bitrate= 386.1kbits/s dup=1 drop=0 speed=5.92x    frame= 6413 fps=142 q=32.0 size=   12587kB time=00:04:27.62 bitrate= 385.3kbits/s dup=1 drop=0 speed=5.91x    frame= 6484 fps=142 q=32.0 size=   12673kB time=00:04:30.61 bitrate= 383.6kbits/s dup=1 drop=0 speed=5.91x    frame= 6526 fps=141 q=32.0 size=   12798kB time=00:04:32.36 bitrate= 384.9kbits/s dup=1 drop=0 speed=5.88x    frame= 6573 fps=140 q=32.0 size=   12896kB time=00:04:34.32 bitrate= 385.1kbits/s dup=1 drop=0 speed=5.85x    frame= 6618 fps=140 q=32.0 size=   12983kB time=00:04:36.20 bitrate= 385.1kbits/s dup=1 drop=0 speed=5.83x    frame= 6671 fps=139 q=32.0 size=   13102kB time=00:04:38.37 bitrate= 385.5kbits/s dup=1 drop=0 speed=5.81x    frame= 6740 fps=139 q=32.0 size=   13188kB time=00:04:41.28 bitrate= 384.1kbits/s dup=1 drop=0 speed=5.81x    frame= 6812 fps=139 q=32.0 size=   13306kB time=00:04:44.26 bitrate= 383.4kbits/s dup=1 drop=0 speed=5.81x    frame= 6898 fps=140 q=32.0 size=   13410kB time=00:04:47.85 bitrate= 381.6kbits/s dup=1 drop=0 speed=5.83x    frame= 6976 fps=140 q=32.0 size=   13535kB time=00:04:51.13 bitrate= 380.8kbits/s dup=1 drop=0 speed=5.83x    frame= 7034 fps=140 q=32.0 size=   13663kB time=00:04:53.52 bitrate= 381.3kbits/s dup=1 drop=0 speed=5.82x    frame= 7105 fps=140 q=32.0 size=   13796kB time=00:04:56.51 bitrate= 381.1kbits/s dup=1 drop=0 speed=5.82x    frame= 7176 fps=140 q=32.0 size=   13870kB time=00:04:59.45 bitrate= 379.4kbits/s dup=1 drop=0 speed=5.82x    frame= 7225 fps=139 q=32.0 size=   13968kB time=00:05:01.50 bitrate= 379.5kbits/s dup=1 drop=0 speed=5.81x    frame= 7280 fps=139 q=32.0 size=   14067kB time=00:05:03.80 bitrate= 379.3kbits/s dup=1 drop=0 speed=5.79x    frame= 7344 fps=139 q=32.0 size=   14199kB time=00:05:06.45 bitrate= 379.6kbits/s dup=1 drop=0 speed=5.79x    frame= 7412 fps=139 q=32.0 size=   14310kB time=00:05:09.31 bitrate= 379.0kbits/s dup=1 drop=0 speed=5.79x    frame= 7467 fps=138 q=32.0 size=   14423kB time=00:05:11.57 bitrate= 379.2kbits/s dup=1 drop=0 speed=5.77x    frame= 7521 fps=138 q=32.0 size=   14535kB time=00:05:13.83 bitrate= 379.4kbits/s dup=1 drop=0 speed=5.76x    frame= 7574 fps=138 q=32.0 size=   14655kB time=00:05:16.05 bitrate= 379.9kbits/s dup=1 drop=0 speed=5.75x    frame= 7663 fps=138 q=32.0 size=   14777kB time=00:05:19.76 bitrate= 378.6kbits/s dup=1 drop=0 speed=5.76x    frame= 7738 fps=138 q=32.0 size=   14894kB time=00:05:22.88 bitrate= 377.9kbits/s dup=1 drop=0 speed=5.76x    frame= 7795 fps=138 q=32.0 size=   14997kB time=00:05:25.27 bitrate= 377.7kbits/s dup=1 drop=0 speed=5.75x    frame= 7839 fps=137 q=32.0 size=   15148kB time=00:05:27.10 bitrate= 379.4kbits/s dup=1 drop=0 speed=5.73x    frame= 7915 fps=137 q=32.0 size=   15277kB time=00:05:30.30 bitrate= 378.9kbits/s dup=1 drop=0 speed=5.74x    frame= 7971 fps=137 q=32.0 size=   15382kB time=00:05:32.60 bitrate= 378.8kbits/s dup=1 drop=0 speed=5.73x    frame= 8049 fps=137 q=32.0 size=   15485kB time=00:05:35.89 bitrate= 377.7kbits/s dup=1 drop=0 speed=5.73x    frame= 8106 fps=137 q=32.0 size=   15598kB time=00:05:38.24 bitrate= 377.8kbits/s dup=1 drop=0 speed=5.72x    frame= 8183 fps=137 q=32.0 size=   15721kB time=00:05:41.44 bitrate= 377.2kbits/s dup=1 drop=0 speed=5.73x    frame= 8265 fps=138 q=32.0 size=   15825kB time=00:05:44.85 bitrate= 375.9kbits/s dup=1 drop=0 speed=5.74x    frame= 8360 fps=138 q=32.0 size=   15926kB time=00:05:48.82 bitrate= 374.0kbits/s dup=1 drop=0 speed=5.76x    frame= 8463 fps=138 q=32.0 size=   16015kB time=00:05:53.13 bitrate= 371.5kbits/s dup=1 drop=0 speed=5.78x    frame= 8560 fps=139 q=32.0 size=   16077kB time=00:05:57.18 bitrate= 368.7kbits/s dup=1 drop=0 speed= 5.8x    frame= 8619 fps=139 q=32.0 size=   16193kB time=00:05:59.65 bitrate= 368.8kbits/s dup=1 drop=0 speed=5.79x    frame= 8669 fps=138 q=32.0 size=   16294kB time=00:06:01.70 bitrate= 369.0kbits/s dup=1 drop=0 speed=5.77x    frame= 8722 fps=138 q=32.0 size=   16430kB time=00:06:03.92 bitrate= 369.8kbits/s dup=1 drop=0 speed=5.76x    frame= 8795 fps=138 q=32.0 size=   16548kB time=00:06:06.99 bitrate= 369.4kbits/s dup=1 drop=0 speed=5.77x    frame= 8862 fps=138 q=32.0 size=   16652kB time=00:06:09.77 bitrate= 368.9kbits/s dup=1 drop=0 speed=5.76x    frame= 8955 fps=138 q=32.0 size=   16726kB time=00:06:13.65 bitrate= 366.7kbits/s dup=1 drop=0 speed=5.78x    frame= 9039 fps=139 q=32.0 size=   16819kB time=00:06:17.15 bitrate= 365.3kbits/s dup=1 drop=0 speed=5.79x    frame= 9103 fps=139 q=32.0 size=   16946kB time=00:06:19.84 bitrate= 365.5kbits/s dup=1 drop=0 speed=5.78x    frame= 9180 fps=139 q=32.0 size=   17044kB time=00:06:23.08 bitrate= 364.5kbits/s dup=1 drop=0 speed=5.79x    frame= 9268 fps=139 q=32.0 size=   17140kB time=00:06:26.75 bitrate= 363.1kbits/s dup=1 drop=0 speed= 5.8x    frame= 9341 fps=139 q=32.0 size=   17275kB time=00:06:29.73 bitrate= 363.1kbits/s dup=1 drop=0 speed= 5.8x    frame= 9409 fps=139 q=32.0 size=   17361kB time=00:06:32.59 bitrate= 362.2kbits/s dup=1 drop=0 speed= 5.8x    frame= 9484 fps=139 q=32.0 size=   17483kB time=00:06:35.71 bitrate= 361.9kbits/s dup=1 drop=0 speed= 5.8x    frame= 9564 fps=139 q=32.0 size=   17580kB time=00:06:39.04 bitrate= 360.9kbits/s dup=1 drop=0 speed=5.81x    frame= 9654 fps=139 q=32.0 size=   17688kB time=00:06:42.79 bitrate= 359.7kbits/s dup=1 drop=0 speed=5.82x    frame= 9743 fps=140 q=32.0 size=   17764kB time=00:06:46.55 bitrate= 357.9kbits/s dup=1 drop=0 speed=5.83x    frame= 9841 fps=140 q=32.0 size=   17887kB time=00:06:50.60 bitrate= 356.9kbits/s dup=1 drop=0 speed=5.85x    frame= 9937 fps=141 q=32.0 size=   17988kB time=00:06:54.61 bitrate= 355.4kbits/s dup=1 drop=0 speed=5.86x    frame=10015 fps=141 q=32.0 size=   18052kB time=00:06:57.85 bitrate= 353.9kbits/s dup=1 drop=0 speed=5.87x    frame=10100 fps=141 q=32.0 size=   18187kB time=00:07:01.39 bitrate= 353.6kbits/s dup=1 drop=0 speed=5.87x    frame=10197 fps=141 q=32.0 size=   18256kB time=00:07:05.45 bitrate= 351.5kbits/s dup=1 drop=0 speed=5.89x    frame=10284 fps=141 q=32.0 size=   18378kB time=00:07:09.07 bitrate= 350.9kbits/s dup=1 drop=0 speed= 5.9x    frame=10373 fps=142 q=32.0 size=   18458kB time=00:07:12.79 bitrate= 349.4kbits/s dup=1 drop=0 speed=5.91x    frame=10456 fps=142 q=32.0 size=   18535kB time=00:07:16.28 bitrate= 348.0kbits/s dup=1 drop=0 speed=5.92x    frame=10546 fps=142 q=32.0 size=   18656kB time=00:07:20.00 bitrate= 347.3kbits/s dup=1 drop=0 speed=5.93x    frame=10643 fps=142 q=32.0 size=   18740kB time=00:07:24.05 bitrate= 345.7kbits/s dup=1 drop=0 speed=5.94x    frame=10709 fps=142 q=32.0 size=   18831kB time=00:07:26.82 bitrate= 345.3kbits/s dup=1 drop=0 speed=5.93x    frame=10776 fps=142 q=32.0 size=   18946kB time=00:07:29.60 bitrate= 345.2kbits/s dup=1 drop=0 speed=5.93x    frame=10865 fps=142 q=32.0 size=   19043kB time=00:07:33.31 bitrate= 344.1kbits/s dup=1 drop=0 speed=5.94x    frame=10952 fps=143 q=32.0 size=   19175kB time=00:07:36.93 bitrate= 343.8kbits/s dup=1 drop=0 speed=5.95x    frame=11040 fps=143 q=32.0 size=   19263kB time=00:07:40.60 bitrate= 342.6kbits/s dup=1 drop=0 speed=5.96x    frame=11130 fps=143 q=32.0 size=   19365kB time=00:07:44.36 bitrate= 341.6kbits/s dup=1 drop=0 speed=5.97x    frame=11214 fps=143 q=32.0 size=   19448kB time=00:07:47.86 bitrate= 340.5kbits/s dup=1 drop=0 speed=5.97x    frame=11301 fps=143 q=32.0 size=   19539kB time=00:07:51.48 bitrate= 339.5kbits/s dup=1 drop=0 speed=5.98x    frame=11380 fps=143 q=32.0 size=   19656kB time=00:07:54.77 bitrate= 339.2kbits/s dup=1 drop=0 speed=5.98x    frame=11480 fps=144 q=32.0 size=   19756kB time=00:07:58.95 bitrate= 337.9kbits/s dup=1 drop=0 speed=   6x    frame=11555 fps=144 q=32.0 size=   19843kB time=00:08:02.07 bitrate= 337.2kbits/s dup=1 drop=0 speed=   6x    frame=11620 fps=144 q=32.0 size=   19958kB time=00:08:04.80 bitrate= 337.2kbits/s dup=1 drop=0 speed=5.99x    frame=11679 fps=143 q=32.0 size=   20039kB time=00:08:07.27 bitrate= 336.9kbits/s dup=1 drop=0 speed=5.99x    frame=11747 fps=143 q=32.0 size=   20145kB time=00:08:10.09 bitrate= 336.7kbits/s dup=1 drop=0 speed=5.98x    frame=11843 fps=144 q=32.0 size=   20228kB time=00:08:14.10 bitrate= 335.4kbits/s dup=1 drop=0 speed=   6x    frame=11919 fps=144 q=32.0 size=   20337kB time=00:08:17.25 bitrate= 335.0kbits/s dup=1 drop=0 speed=   6x    frame=11982 fps=144 q=32.0 size=   20459kB time=00:08:19.90 bitrate= 335.3kbits/s dup=1 drop=0 speed=5.99x    frame=12057 fps=144 q=32.0 size=   20565kB time=00:08:23.01 bitrate= 334.9kbits/s dup=1 drop=0 speed=5.99x    frame=12141 fps=144 q=32.0 size=   20683kB time=00:08:26.56 bitrate= 334.5kbits/s dup=1 drop=0 speed=   6x    frame=12217 fps=144 q=32.0 size=   20791kB time=00:08:29.71 bitrate= 334.2kbits/s dup=1 drop=0 speed=   6x    frame=12302 fps=144 q=32.0 size=   20906kB time=00:08:33.25 bitrate= 333.7kbits/s dup=1 drop=0 speed=6.01x    frame=12392 fps=144 q=32.0 size=   21046kB time=00:08:37.01 bitrate= 333.5kbits/s dup=1 drop=0 speed=6.02x    frame=12477 fps=144 q=32.0 size=   21123kB time=00:08:40.55 bitrate= 332.4kbits/s dup=1 drop=0 speed=6.02x    frame=12556 fps=144 q=32.0 size=   21207kB time=00:08:43.84 bitrate= 331.6kbits/s dup=1 drop=0 speed=6.03x    frame=12628 fps=144 q=32.0 size=   21330kB time=00:08:46.82 bitrate= 331.7kbits/s dup=1 drop=0 speed=6.03x    frame=12715 fps=145 q=32.0 size=   21419kB time=00:08:50.45 bitrate= 330.8kbits/s dup=1 drop=0 speed=6.03x    frame=12809 fps=145 q=32.0 size=   21512kB time=00:08:54.42 bitrate= 329.7kbits/s dup=1 drop=0 speed=6.04x    frame=12905 fps=145 q=32.0 size=   21626kB time=00:08:58.43 bitrate= 329.0kbits/s dup=1 drop=0 speed=6.05x    frame=12997 fps=145 q=32.0 size=   21713kB time=00:09:02.27 bitrate= 328.0kbits/s dup=1 drop=0 speed=6.06x    frame=13057 fps=145 q=32.0 size=   21853kB time=00:09:04.74 bitrate= 328.6kbits/s dup=1 drop=0 speed=6.05x    frame=13118 fps=145 q=32.0 size=   21976kB time=00:09:07.30 bitrate= 328.9kbits/s dup=1 drop=0 speed=6.05x    frame=13179 fps=145 q=32.0 size=   22083kB time=00:09:09.82 bitrate= 329.0kbits/s dup=1 drop=0 speed=6.04x    frame=13256 fps=145 q=32.0 size=   22199kB time=00:09:13.06 bitrate= 328.8kbits/s dup=1 drop=0 speed=6.05x    frame=13334 fps=145 q=32.0 size=   22289kB time=00:09:16.31 bitrate= 328.2kbits/s dup=1 drop=0 speed=6.05x    frame=13406 fps=145 q=32.0 size=   22395kB time=00:09:19.29 bitrate= 328.0kbits/s dup=1 drop=0 speed=6.05x    frame=13457 fps=145 q=32.0 size=   22496kB time=00:09:21.43 bitrate= 328.2kbits/s dup=1 drop=0 speed=6.04x    frame=13529 fps=145 q=32.0 size=   22599kB time=00:09:24.41 bitrate= 328.0kbits/s dup=1 drop=0 speed=6.04x    frame=13592 fps=145 q=32.0 size=   22729kB time=00:09:27.06 bitrate= 328.3kbits/s dup=1 drop=0 speed=6.03x    frame=13642 fps=144 q=32.0 size=   22845kB time=00:09:29.11 bitrate= 328.8kbits/s dup=1 drop=0 speed=6.02x    frame=13718 fps=144 q=32.0 size=   23017kB time=00:09:32.31 bitrate= 329.5kbits/s dup=1 drop=0 speed=6.02x    frame=13788 fps=144 q=32.0 size=   23130kB time=00:09:35.21 bitrate= 329.4kbits/s dup=1 drop=0 speed=6.02x    frame=13866 fps=144 q=32.0 size=   23252kB time=00:09:38.49 bitrate= 329.3kbits/s dup=1 drop=0 speed=6.02x    frame=13943 fps=144 q=32.0 size=   23363kB time=00:09:41.69 bitrate= 329.0kbits/s dup=1 drop=0 speed=6.03x    frame=14015 fps=144 q=32.0 size=   23454kB time=00:09:44.72 bitrate= 328.6kbits/s dup=1 drop=0 speed=6.03x    frame=14098 fps=145 q=32.0 size=   23594kB time=00:09:48.18 bitrate= 328.6kbits/s dup=1 drop=0 speed=6.03x    frame=14170 fps=145 q=32.0 size=   23737kB time=00:09:51.16 bitrate= 328.9kbits/s dup=1 drop=0 speed=6.03x    frame=14256 fps=145 q=32.0 size=   23858kB time=00:09:54.75 bitrate= 328.6kbits/s dup=1 drop=0 speed=6.04x    frame=14330 fps=145 q=32.0 size=   23958kB time=00:09:57.82 bitrate= 328.3kbits/s dup=1 drop=0 speed=6.04x    frame=14423 fps=145 q=32.0 size=   24074kB time=00:10:01.70 bitrate= 327.8kbits/s dup=1 drop=0 speed=6.04x    frame=14511 fps=145 q=32.0 size=   24162kB time=00:10:05.41 bitrate= 326.9kbits/s dup=1 drop=0 speed=6.05x    frame=14582 fps=145 q=32.0 size=   24250kB time=00:10:08.36 bitrate= 326.5kbits/s dup=1 drop=0 speed=6.05x    frame=14654 fps=145 q=32.0 size=   24352kB time=00:10:11.39 bitrate= 326.3kbits/s dup=1 drop=0 speed=6.05x    frame=14737 fps=145 q=32.0 size=   24441kB time=00:10:14.80 bitrate= 325.7kbits/s dup=1 drop=0 speed=6.05x    frame=14831 fps=145 q=32.0 size=   24521kB time=00:10:18.73 bitrate= 324.7kbits/s dup=1 drop=0 speed=6.06x    frame=14927 fps=146 q=32.0 size=   24599kB time=00:10:22.74 bitrate= 323.6kbits/s dup=1 drop=0 speed=6.07x    frame=14973 fps=145 q=32.0 size=   24687kB time=00:10:24.66 bitrate= 323.8kbits/s dup=1 drop=0 speed=6.06x    frame=15065 fps=145 q=32.0 size=   24761kB time=00:10:28.50 bitrate= 322.7kbits/s dup=1 drop=0 speed=6.07x    frame=15156 fps=146 q=32.0 size=   24864kB time=00:10:32.29 bitrate= 322.1kbits/s dup=1 drop=0 speed=6.07x    frame=15250 fps=146 q=32.0 size=   24966kB time=00:10:36.22 bitrate= 321.5kbits/s dup=1 drop=0 speed=6.08x    frame=15346 fps=146 q=32.0 size=   25075kB time=00:10:40.23 bitrate= 320.8kbits/s dup=1 drop=0 speed=6.09x    frame=15425 fps=146 q=32.0 size=   25163kB time=00:10:43.52 bitrate= 320.3kbits/s dup=1 drop=0 speed=6.09x    frame=15518 fps=146 q=32.0 size=   25281kB time=00:10:47.40 bitrate= 319.9kbits/s dup=1 drop=0 speed= 6.1x    frame=15626 fps=147 q=32.0 size=   25357kB time=00:10:51.88 bitrate= 318.7kbits/s dup=1 drop=0 speed=6.11x    frame=15726 fps=147 q=32.0 size=   25461kB time=00:10:56.06 bitrate= 317.9kbits/s dup=1 drop=0 speed=6.12x    frame=15789 fps=147 q=32.0 size=   25562kB time=00:10:58.71 bitrate= 317.9kbits/s dup=1 drop=0 speed=6.12x    frame=15876 fps=147 q=32.0 size=   25639kB time=00:11:02.33 bitrate= 317.1kbits/s dup=1 drop=0 speed=6.13x    frame=15957 fps=147 q=32.0 size=   25747kB time=00:11:05.70 bitrate= 316.8kbits/s dup=1 drop=0 speed=6.13x    frame=16038 fps=147 q=32.0 size=   25856kB time=00:11:09.07 bitrate= 316.6kbits/s dup=1 drop=0 speed=6.13x    frame=16125 fps=147 q=32.0 size=   25954kB time=00:11:12.70 bitrate= 316.1kbits/s dup=1 drop=0 speed=6.13x    frame=16210 fps=147 q=32.0 size=   26047kB time=00:11:16.24 bitrate= 315.5kbits/s dup=1 drop=0 speed=6.14x    frame=16307 fps=147 q=32.0 size=   26154kB time=00:11:20.29 bitrate= 314.9kbits/s dup=1 drop=0 speed=6.15x    frame=16389 fps=147 q=32.0 size=   26249kB time=00:11:23.71 bitrate= 314.5kbits/s dup=1 drop=0 speed=6.15x    frame=16472 fps=147 q=32.0 size=   26337kB time=00:11:27.16 bitrate= 314.0kbits/s dup=1 drop=0 speed=6.15x    frame=16566 fps=148 q=32.0 size=   26460kB time=00:11:31.09 bitrate= 313.6kbits/s dup=1 drop=0 speed=6.16x    frame=16641 fps=148 q=32.0 size=   26579kB time=00:11:34.20 bitrate= 313.6kbits/s dup=1 drop=0 speed=6.16x    frame=16714 fps=148 q=32.0 size=   26703kB time=00:11:37.28 bitrate= 313.7kbits/s dup=1 drop=0 speed=6.16x    frame=16788 fps=148 q=32.0 size=   26871kB time=00:11:40.35 bitrate= 314.3kbits/s dup=1 drop=0 speed=6.16x    frame=16865 fps=148 q=32.0 size=   26984kB time=00:11:43.55 bitrate= 314.2kbits/s dup=1 drop=0 speed=6.16x    frame=16947 fps=148 q=32.0 size=   27059kB time=00:11:47.00 bitrate= 313.5kbits/s dup=1 drop=0 speed=6.16x    frame=17022 fps=148 q=32.0 size=   27157kB time=00:11:50.12 bitrate= 313.3kbits/s dup=1 drop=0 speed=6.16x    frame=17110 fps=148 q=32.0 size=   27253kB time=00:11:53.79 bitrate= 312.8kbits/s dup=1 drop=0 speed=6.17x    frame=17187 fps=148 q=32.0 size=   27384kB time=00:11:56.99 bitrate= 312.9kbits/s dup=1 drop=0 speed=6.17x    frame=17277 fps=148 q=32.0 size=   27488kB time=00:12:00.74 bitrate= 312.4kbits/s dup=1 drop=0 speed=6.17x    frame=17357 fps=148 q=32.0 size=   27564kB time=00:12:04.07 bitrate= 311.8kbits/s dup=1 drop=0 speed=6.18x    frame=17455 fps=148 q=32.0 size=   27668kB time=00:12:08.17 bitrate= 311.3kbits/s dup=1 drop=0 speed=6.18x    frame=17538 fps=148 q=32.0 size=   27769kB time=00:12:11.62 bitrate= 310.9kbits/s dup=1 drop=0 speed=6.18x    frame=17614 fps=148 q=32.0 size=   27867kB time=00:12:14.82 bitrate= 310.7kbits/s dup=1 drop=0 speed=6.18x    frame=17700 fps=148 q=32.0 size=   28003kB time=00:12:18.41 bitrate= 310.7kbits/s dup=1 drop=0 speed=6.19x    frame=17773 fps=148 q=32.0 size=   28070kB time=00:12:21.44 bitrate= 310.1kbits/s dup=1 drop=0 speed=6.19x    frame=17838 fps=148 q=32.0 size=   28224kB time=00:12:24.12 bitrate= 310.7kbits/s dup=1 drop=0 speed=6.18x    frame=17904 fps=148 q=32.0 size=   28323kB time=00:12:26.90 bitrate= 310.6kbits/s dup=1 drop=0 speed=6.18x    frame=17962 fps=148 q=29.0 size=   28421kB time=00:12:29.33 bitrate= 310.7kbits/s dup=1 drop=0 speed=6.17x    frame=18020 fps=148 q=32.0 size=   28554kB time=00:12:31.76 bitrate= 311.2kbits/s dup=1 drop=0 speed=6.17x    frame=18076 fps=148 q=32.0 size=   28628kB time=00:12:34.07 bitrate= 311.0kbits/s dup=1 drop=0 speed=6.16x    frame=18142 fps=148 q=32.0 size=   28714kB time=00:12:36.84 bitrate= 310.8kbits/s dup=1 drop=0 speed=6.16x    frame=18225 fps=148 q=32.0 size=   28799kB time=00:12:40.29 bitrate= 310.3kbits/s dup=1 drop=0 speed=6.16x    frame=18310 fps=148 q=32.0 size=   28948kB time=00:12:43.84 bitrate= 310.5kbits/s dup=1 drop=0 speed=6.16x    frame=18410 fps=148 q=32.0 size=   29066kB time=00:12:47.97 bitrate= 310.0kbits/s dup=1 drop=0 speed=6.17x    frame=18495 fps=148 q=32.0 size=   29149kB time=00:12:51.56 bitrate= 309.5kbits/s dup=1 drop=0 speed=6.17x    frame=18584 fps=148 q=32.0 size=   29265kB time=00:12:55.27 bitrate= 309.2kbits/s dup=1 drop=0 speed=6.18x    frame=18660 fps=148 q=32.0 size=   29347kB time=00:12:58.43 bitrate= 308.8kbits/s dup=1 drop=0 speed=6.18x    frame=18731 fps=148 q=32.0 size=   29439kB time=00:13:01.37 bitrate= 308.6kbits/s dup=1 drop=0 speed=6.18x    frame=18802 fps=148 q=32.0 size=   29542kB time=00:13:04.36 bitrate= 308.5kbits/s dup=1 drop=0 speed=6.18x    frame=18874 fps=148 q=32.0 size=   29676kB time=00:13:07.35 bitrate= 308.8kbits/s dup=1 drop=0 speed=6.18x    frame=18946 fps=148 q=32.0 size=   29768kB time=00:13:10.37 bitrate= 308.5kbits/s dup=1 drop=0 speed=6.18x    frame=19027 fps=148 q=32.0 size=   29863kB time=00:13:13.75 bitrate= 308.2kbits/s dup=1 drop=0 speed=6.18x    frame=19100 fps=148 q=32.0 size=   29993kB time=00:13:16.77 bitrate= 308.4kbits/s dup=1 drop=0 speed=6.18x    frame=19175 fps=148 q=32.0 size=   30077kB time=00:13:19.93 bitrate= 308.0kbits/s dup=1 drop=0 speed=6.18x    frame=19237 fps=148 q=32.0 size=   30212kB time=00:13:22.49 bitrate= 308.4kbits/s dup=1 drop=0 speed=6.17x    frame=19294 fps=148 q=32.0 size=   30361kB time=00:13:24.88 bitrate= 309.0kbits/s dup=1 drop=0 speed=6.17x    frame=19346 fps=148 q=32.0 size=   30474kB time=00:13:27.06 bitrate= 309.3kbits/s dup=1 drop=0 speed=6.16x    frame=19382 fps=147 q=32.0 size=   30582kB time=00:13:28.55 bitrate= 309.8kbits/s dup=1 drop=0 speed=6.15x    frame=19424 fps=147 q=32.0 size=   30710kB time=00:13:30.30 bitrate= 310.5kbits/s dup=1 drop=0 speed=6.14x    frame=19461 fps=147 q=32.0 size=   30825kB time=00:13:31.84 bitrate= 311.0kbits/s dup=1 drop=0 speed=6.12x    frame=19501 fps=147 q=32.0 size=   30964kB time=00:13:33.50 bitrate= 311.8kbits/s dup=1 drop=0 speed=6.11x    frame=19536 fps=146 q=32.0 size=   31089kB time=00:13:34.95 bitrate= 312.5kbits/s dup=1 drop=0 speed= 6.1x    frame=19589 fps=146 q=32.0 size=   31246kB time=00:13:37.21 bitrate= 313.2kbits/s dup=1 drop=0 speed=6.09x    frame=19656 fps=146 q=32.0 size=   31349kB time=00:13:39.99 bitrate= 313.2kbits/s dup=1 drop=0 speed=6.09x    frame=19734 fps=146 q=32.0 size=   31459kB time=00:13:43.23 bitrate= 313.1kbits/s dup=1 drop=0 speed=6.09x    frame=19798 fps=146 q=32.0 size=   31567kB time=00:13:45.92 bitrate= 313.1kbits/s dup=1 drop=0 speed=6.09x    frame=19856 fps=146 q=32.0 size=   31680kB time=00:13:48.31 bitrate= 313.3kbits/s dup=1 drop=0 speed=6.08x    frame=19915 fps=146 q=32.0 size=   31795kB time=00:13:50.78 bitrate= 313.5kbits/s dup=1 drop=0 speed=6.08x    frame=19983 fps=146 q=32.0 size=   31908kB time=00:13:53.60 bitrate= 313.6kbits/s dup=1 drop=0 speed=6.08x    frame=20065 fps=146 q=32.0 size=   32027kB time=00:13:57.05 bitrate= 313.4kbits/s dup=1 drop=0 speed=6.08x    frame=20159 fps=146 q=32.0 size=   32112kB time=00:14:00.93 bitrate= 312.8kbits/s dup=1 drop=0 speed=6.09x    frame=20232 fps=146 q=32.0 size=   32209kB time=00:14:04.01 bitrate= 312.6kbits/s dup=1 drop=0 speed=6.09x    frame=20273 fps=146 q=32.0 size=   32322kB time=00:14:05.71 bitrate= 313.1kbits/s dup=1 drop=0 speed=6.08x    frame=20328 fps=145 q=32.0 size=   32433kB time=00:14:08.02 bitrate= 313.3kbits/s dup=1 drop=0 speed=6.07x    frame=20409 fps=146 q=32.0 size=   32532kB time=00:14:11.39 bitrate= 313.0kbits/s dup=1 drop=0 speed=6.07x    frame=20491 fps=146 q=32.0 size=   32649kB time=00:14:14.80 bitrate= 312.9kbits/s dup=1 drop=0 speed=6.07x    frame=20564 fps=146 q=32.0 size=   32747kB time=00:14:17.83 bitrate= 312.7kbits/s dup=1 drop=0 speed=6.07x    frame=20620 fps=145 q=32.0 size=   32859kB time=00:14:20.18 bitrate= 312.9kbits/s dup=1 drop=0 speed=6.07x    frame=20692 fps=145 q=32.0 size=   32958kB time=00:14:23.16 bitrate= 312.8kbits/s dup=1 drop=0 speed=6.07x    frame=20770 fps=146 q=32.0 size=   33085kB time=00:14:26.45 bitrate= 312.8kbits/s dup=1 drop=0 speed=6.07x    frame=20869 fps=146 q=32.0 size=   33159kB time=00:14:30.59 bitrate= 312.0kbits/s dup=1 drop=0 speed=6.08x    frame=20945 fps=146 q=32.0 size=   33260kB time=00:14:33.75 bitrate= 311.8kbits/s dup=1 drop=0 speed=6.08x    frame=21023 fps=146 q=32.0 size=   33398kB time=00:14:36.99 bitrate= 312.0kbits/s dup=1 drop=0 speed=6.08x    frame=21095 fps=146 q=32.0 size=   33489kB time=00:14:40.02 bitrate= 311.7kbits/s dup=1 drop=0 speed=6.08x    frame=21178 fps=146 q=29.0 size=   33574kB time=00:14:43.47 bitrate= 311.3kbits/s dup=1 drop=0 speed=6.08x    frame=21278 fps=146 q=32.0 size=   33689kB time=00:14:47.65 bitrate= 310.9kbits/s dup=1 drop=0 speed=6.09x    frame=21362 fps=146 q=32.0 size=   33818kB time=00:14:51.11 bitrate= 310.9kbits/s dup=1 drop=0 speed=6.09x    frame=21450 fps=146 q=32.0 size=   33887kB time=00:14:54.82 bitrate= 310.2kbits/s dup=1 drop=0 speed= 6.1x    frame=21503 fps=146 q=32.0 size=   34026kB time=00:14:57.00 bitrate= 310.7kbits/s dup=1 drop=0 speed=6.09x    frame=21571 fps=146 q=32.0 size=   34147kB time=00:14:59.86 bitrate= 310.9kbits/s dup=1 drop=0 speed=6.09x    frame=21650 fps=146 q=32.0 size=   34241kB time=00:15:03.14 bitrate= 310.6kbits/s dup=1 drop=0 speed=6.09x    frame=21725 fps=146 q=32.0 size=   34374kB time=00:15:06.26 bitrate= 310.7kbits/s dup=1 drop=0 speed=6.09x    frame=21798 fps=146 q=32.0 size=   34464kB time=00:15:09.29 bitrate= 310.5kbits/s dup=1 drop=0 speed=6.09x    frame=21896 fps=146 q=32.0 size=   34573kB time=00:15:13.43 bitrate= 310.1kbits/s dup=1 drop=0 speed= 6.1x    frame=21984 fps=146 q=32.0 size=   34630kB time=00:15:17.09 bitrate= 309.3kbits/s dup=1 drop=0 speed= 6.1x    frame=22037 fps=146 q=32.0 size=   34740kB time=00:15:19.27 bitrate= 309.6kbits/s dup=1 drop=0 speed=6.09x    frame=22112 fps=146 q=32.0 size=   34863kB time=00:15:22.39 bitrate= 309.6kbits/s dup=1 drop=0 speed= 6.1x    frame=22203 fps=146 q=32.0 size=   34945kB time=00:15:26.18 bitrate= 309.1kbits/s dup=1 drop=0 speed= 6.1x    frame=22281 fps=146 q=32.0 size=   35035kB time=00:15:29.47 bitrate= 308.8kbits/s dup=1 drop=0 speed= 6.1x    frame=22329 fps=146 q=32.0 size=   35146kB time=00:15:31.47 bitrate= 309.1kbits/s dup=1 drop=0 speed=6.09x    frame=22394 fps=146 q=32.0 size=   35241kB time=00:15:34.16 bitrate= 309.0kbits/s dup=1 drop=0 speed=6.09x    frame=22463 fps=146 q=32.0 size=   35347kB time=00:15:37.06 bitrate= 309.0kbits/s dup=1 drop=0 speed=6.09x    frame=22534 fps=146 q=32.0 size=   35470kB time=00:15:40.01 bitrate= 309.1kbits/s dup=1 drop=0 speed=6.09x    frame=22584 fps=146 q=32.0 size=   35596kB time=00:15:42.10 bitrate= 309.5kbits/s dup=1 drop=0 speed=6.08x    frame=22653 fps=146 q=32.0 size=   35708kB time=00:15:44.96 bitrate= 309.6kbits/s dup=1 drop=0 speed=6.08x    frame=22716 fps=146 q=32.0 size=   35808kB time=00:15:47.60 bitrate= 309.6kbits/s dup=1 drop=0 speed=6.08x    frame=22782 fps=146 q=32.0 size=   35911kB time=00:15:50.33 bitrate= 309.6kbits/s dup=1 drop=0 speed=6.07x    frame=22851 fps=146 q=32.0 size=   36017kB time=00:15:53.23 bitrate= 309.5kbits/s dup=1 drop=0 speed=6.07x    frame=22912 fps=146 q=32.0 size=   36101kB time=00:15:55.75 bitrate= 309.4kbits/s dup=1 drop=0 speed=6.07x    frame=22990 fps=146 q=32.0 size=   36226kB time=00:15:59.04 bitrate= 309.4kbits/s dup=1 drop=0 speed=6.07x    frame=23083 fps=146 q=32.0 size=   36326kB time=00:16:02.92 bitrate= 309.0kbits/s dup=1 drop=0 speed=6.08x    frame=23163 fps=146 q=32.0 size=   36417kB time=00:16:06.20 bitrate= 308.8kbits/s dup=1 drop=0 speed=6.08x    frame=23235 fps=146 q=32.0 size=   36496kB time=00:16:09.28 bitrate= 308.5kbits/s dup=1 drop=0 speed=6.08x    frame=23291 fps=146 q=32.0 size=   36598kB time=00:16:11.58 bitrate= 308.6kbits/s dup=1 drop=0 speed=6.07x    frame=23356 fps=146 q=32.0 size=   36714kB time=00:16:14.31 bitrate= 308.7kbits/s dup=1 drop=0 speed=6.07x    frame=23422 fps=145 q=32.0 size=   36867kB time=00:16:17.04 bitrate= 309.1kbits/s dup=1 drop=0 speed=6.07x    frame=23505 fps=146 q=32.0 size=   36977kB time=00:16:20.50 bitrate= 308.9kbits/s dup=1 drop=0 speed=6.07x    frame=23604 fps=146 q=32.0 size=   37076kB time=00:16:24.64 bitrate= 308.5kbits/s dup=1 drop=0 speed=6.08x    frame=23688 fps=146 q=32.0 size=   37163kB time=00:16:28.13 bitrate= 308.1kbits/s dup=1 drop=0 speed=6.08x    frame=23760 fps=146 q=32.0 size=   37238kB time=00:16:31.16 bitrate= 307.8kbits/s dup=1 drop=0 speed=6.08x    frame=23831 fps=146 q=32.0 size=   37373kB time=00:16:34.11 bitrate= 308.0kbits/s dup=1 drop=0 speed=6.08x    frame=23919 fps=146 q=32.0 size=   37452kB time=00:16:37.78 bitrate= 307.5kbits/s dup=1 drop=0 speed=6.08x    frame=24001 fps=146 q=32.0 size=   37588kB time=00:16:41.19 bitrate= 307.5kbits/s dup=1 drop=0 speed=6.08x    frame=24095 fps=146 q=32.0 size=   37656kB time=00:16:45.07 bitrate= 306.9kbits/s dup=1 drop=0 speed=6.09x    frame=24159 fps=146 q=32.0 size=   37766kB time=00:16:47.76 bitrate= 307.0kbits/s dup=1 drop=0 speed=6.09x    frame=24258 fps=146 q=32.0 size=   37890kB time=00:16:51.90 bitrate= 306.7kbits/s dup=1 drop=0 speed=6.09x    frame=24337 fps=146 q=32.0 size=   37961kB time=00:16:55.23 bitrate= 306.3kbits/s dup=1 drop=0 speed=6.09x    frame=24419 fps=146 q=32.0 size=   38059kB time=00:16:58.64 bitrate= 306.1kbits/s dup=1 drop=0 speed= 6.1x    frame=24541 fps=146 q=32.0 size=   38155kB time=00:17:03.68 bitrate= 305.3kbits/s dup=1 drop=0 speed=6.11x    frame=24626 fps=147 q=32.0 size=   38283kB time=00:17:07.26 bitrate= 305.3kbits/s dup=1 drop=0 speed=6.11x    frame=24724 fps=147 q=32.0 size=   38405kB time=00:17:11.36 bitrate= 305.0kbits/s dup=1 drop=0 speed=6.12x    frame=24831 fps=147 q=32.0 size=   38491kB time=00:17:15.79 bitrate= 304.4kbits/s dup=1 drop=0 speed=6.13x    frame=24918 fps=147 q=32.0 size=   38611kB time=00:17:19.42 bitrate= 304.3kbits/s dup=1 drop=0 speed=6.13x    frame=25025 fps=147 q=32.0 size=   38751kB time=00:17:23.94 bitrate= 304.1kbits/s dup=1 drop=0 speed=6.14x    frame=25127 fps=147 q=32.0 size=   38821kB time=00:17:28.17 bitrate= 303.4kbits/s dup=1 drop=0 speed=6.14x    frame=25214 fps=147 q=32.0 size=   38941kB time=00:17:31.84 bitrate= 303.3kbits/s dup=1 drop=0 speed=6.15x    frame=25307 fps=147 q=32.0 size=   39029kB time=00:17:35.68 bitrate= 302.9kbits/s dup=1 drop=0 speed=6.15x    frame=25356 fps=147 q=32.0 size=   39109kB time=00:17:37.72 bitrate= 302.9kbits/s dup=1 drop=0 speed=6.15x    frame=25411 fps=147 q=32.0 size=   39188kB time=00:17:39.99 bitrate= 302.9kbits/s dup=1 drop=0 speed=6.14x    frame=25498 fps=147 q=32.0 size=   39301kB time=00:17:43.61 bitrate= 302.7kbits/s dup=1 drop=0 speed=6.14x    frame=25598 fps=147 q=32.0 size=   39379kB time=00:17:47.79 bitrate= 302.1kbits/s dup=1 drop=0 speed=6.15x    frame=25683 fps=147 q=32.0 size=   39494kB time=00:17:51.33 bitrate= 302.0kbits/s dup=1 drop=0 speed=6.15x    frame=25788 fps=148 q=32.0 size=   39557kB time=00:17:55.73 bitrate= 301.2kbits/s dup=1 drop=0 speed=6.16x    frame=25866 fps=148 q=32.0 size=   39667kB time=00:17:58.97 bitrate= 301.2kbits/s dup=1 drop=0 speed=6.16x    frame=25938 fps=148 q=32.0 size=   39793kB time=00:18:02.00 bitrate= 301.3kbits/s dup=1 drop=0 speed=6.16x    frame=26022 fps=148 q=32.0 size=   39889kB time=00:18:05.50 bitrate= 301.0kbits/s dup=1 drop=0 speed=6.16x    frame=26114 fps=148 q=32.0 size=   40013kB time=00:18:09.34 bitrate= 300.9kbits/s dup=1 drop=0 speed=6.17x    frame=26215 fps=148 q=32.0 size=   40106kB time=00:18:13.52 bitrate= 300.4kbits/s dup=1 drop=0 speed=6.17x    frame=26299 fps=148 q=32.0 size=   40214kB time=00:18:17.02 bitrate= 300.3kbits/s dup=1 drop=0 speed=6.17x    frame=26384 fps=148 q=32.0 size=   40351kB time=00:18:20.60 bitrate= 300.3kbits/s dup=1 drop=0 speed=6.18x    frame=26471 fps=148 q=32.0 size=   40436kB time=00:18:24.23 bitrate= 300.0kbits/s dup=1 drop=0 speed=6.18x    frame=26555 fps=148 q=32.0 size=   40525kB time=00:18:27.73 bitrate= 299.7kbits/s dup=1 drop=0 speed=6.18x    frame=26646 fps=148 q=32.0 size=   40658kB time=00:18:31.53 bitrate= 299.6kbits/s dup=1 drop=0 speed=6.19x    frame=26744 fps=148 q=32.0 size=   40764kB time=00:18:35.62 bitrate= 299.3kbits/s dup=1 drop=0 speed=6.19x    frame=26834 fps=149 q=32.0 size=   40832kB time=00:18:39.33 bitrate= 298.8kbits/s dup=1 drop=0 speed=6.19x    frame=26922 fps=149 q=32.0 size=   40960kB time=00:18:43.00 bitrate= 298.8kbits/s dup=1 drop=0 speed= 6.2x    frame=26990 fps=149 q=32.0 size=   41080kB time=00:18:45.86 bitrate= 298.9kbits/s dup=1 drop=0 speed= 6.2x    frame=27087 fps=149 q=32.0 size=   41162kB time=00:18:49.92 bitrate= 298.4kbits/s dup=1 drop=0 speed= 6.2x    frame=27183 fps=149 q=32.0 size=   41285kB time=00:18:53.93 bitrate= 298.3kbits/s dup=1 drop=0 speed=6.21x    frame=27285 fps=149 q=32.0 size=   41393kB time=00:18:58.15 bitrate= 297.9kbits/s dup=1 drop=0 speed=6.21x    frame=27386 fps=149 q=32.0 size=   41486kB time=00:19:02.37 bitrate= 297.5kbits/s dup=1 drop=0 speed=6.22x    frame=27461 fps=149 q=32.0 size=   41571kB time=00:19:05.49 bitrate= 297.3kbits/s dup=1 drop=0 speed=6.22x    frame=27528 fps=149 q=32.0 size=   41741kB time=00:19:08.31 bitrate= 297.8kbits/s dup=1 drop=0 speed=6.22x    frame=27606 fps=149 q=32.0 size=   41820kB time=00:19:11.55 bitrate= 297.5kbits/s dup=1 drop=0 speed=6.22x    frame=27651 fps=149 q=32.0 size=   41896kB time=00:19:13.43 bitrate= 297.6kbits/s dup=1 drop=0 speed=6.21x    frame=27699 fps=149 q=32.0 size=   41972kB time=00:19:15.43 bitrate= 297.6kbits/s dup=1 drop=0 speed= 6.2x    frame=27751 fps=149 q=32.0 size=   42046kB time=00:19:17.61 bitrate= 297.5kbits/s dup=1 drop=0 speed= 6.2x    frame=27829 fps=149 q=32.0 size=   42149kB time=00:19:20.85 bitrate= 297.4kbits/s dup=1 drop=0 speed= 6.2x    frame=27923 fps=149 q=32.0 size=   42241kB time=00:19:24.77 bitrate= 297.1kbits/s dup=1 drop=0 speed= 6.2x    frame=28000 fps=149 q=32.0 size=   42349kB time=00:19:27.97 bitrate= 297.0kbits/s dup=1 drop=0 speed= 6.2x    frame=28082 fps=149 q=32.0 size=   42474kB time=00:19:31.43 bitrate= 297.0kbits/s dup=1 drop=0 speed=6.21x    frame=28171 fps=149 q=32.0 size=   42604kB time=00:19:35.14 bitrate= 297.0kbits/s dup=1 drop=0 speed=6.21x    frame=28258 fps=149 q=32.0 size=   42697kB time=00:19:38.77 bitrate= 296.7kbits/s dup=1 drop=0 speed=6.21x    frame=28348 fps=149 q=32.0 size=   42782kB time=00:19:42.48 bitrate= 296.4kbits/s dup=1 drop=0 speed=6.21x    frame=28447 fps=149 q=32.0 size=   42903kB time=00:19:46.62 bitrate= 296.2kbits/s dup=1 drop=0 speed=6.22x    frame=28544 fps=149 q=32.0 size=   42982kB time=00:19:50.67 bitrate= 295.7kbits/s dup=1 drop=0 speed=6.22x    frame=28619 fps=149 q=32.0 size=   43096kB time=00:19:53.79 bitrate= 295.7kbits/s dup=1 drop=0 speed=6.22x    frame=28690 fps=149 q=32.0 size=   43228kB time=00:19:56.77 bitrate= 295.9kbits/s dup=1 drop=0 speed=6.22x    frame=28736 fps=149 q=32.0 size=   43324kB time=00:19:58.69 bitrate= 296.1kbits/s dup=1 drop=0 speed=6.22x    frame=28822 fps=149 q=32.0 size=   43425kB time=00:20:02.28 bitrate= 295.9kbits/s dup=1 drop=0 speed=6.22x    frame=28894 fps=149 q=32.0 size=   43517kB time=00:20:05.27 bitrate= 295.8kbits/s dup=1 drop=0 speed=6.22x    frame=28948 fps=149 q=32.0 size=   43639kB time=00:20:07.53 bitrate= 296.0kbits/s dup=1 drop=0 speed=6.21x    frame=29032 fps=149 q=32.0 size=   43724kB time=00:20:11.03 bitrate= 295.8kbits/s dup=1 drop=0 speed=6.21x    frame=29125 fps=149 q=32.0 size=   43807kB time=00:20:14.91 bitrate= 295.4kbits/s dup=1 drop=0 speed=6.22x    frame=29199 fps=149 q=32.0 size=   43925kB time=00:20:17.98 bitrate= 295.4kbits/s dup=1 drop=0 speed=6.22x    frame=29296 fps=149 q=32.0 size=   44055kB time=00:20:22.03 bitrate= 295.3kbits/s dup=1 drop=0 speed=6.22x    frame=29390 fps=149 q=32.0 size=   44172kB time=00:20:25.96 bitrate= 295.2kbits/s dup=1 drop=0 speed=6.23x    frame=29472 fps=149 q=32.0 size=   44259kB time=00:20:29.41 bitrate= 294.9kbits/s dup=1 drop=0 speed=6.23x    frame=29566 fps=149 q=32.0 size=   44339kB time=00:20:33.30 bitrate= 294.5kbits/s dup=1 drop=0 speed=6.23x    frame=29672 fps=150 q=32.0 size=   44401kB time=00:20:37.73 bitrate= 293.9kbits/s dup=1 drop=0 speed=6.24x    frame=29757 fps=150 q=32.0 size=   44519kB time=00:20:41.28 bitrate= 293.8kbits/s dup=1 drop=0 speed=6.24x    frame=29824 fps=150 q=32.0 size=   44652kB time=00:20:44.05 bitrate= 294.0kbits/s dup=1 drop=0 speed=6.24x    frame=29886 fps=150 q=32.0 size=   44778kB time=00:20:46.69 bitrate= 294.2kbits/s dup=1 drop=0 speed=6.24x    frame=29973 fps=150 q=32.0 size=   44880kB time=00:20:50.28 bitrate= 294.1kbits/s dup=1 drop=0 speed=6.24x    frame=30061 fps=150 q=32.0 size=   44968kB time=00:20:53.99 bitrate= 293.8kbits/s dup=1 drop=0 speed=6.24x    frame=30152 fps=150 q=32.0 size=   45102kB time=00:20:57.75 bitrate= 293.8kbits/s dup=1 drop=0 speed=6.24x    frame=30232 fps=150 q=32.0 size=   45219kB time=00:21:01.07 bitrate= 293.7kbits/s dup=1 drop=0 speed=6.24x    frame=30313 fps=150 q=32.0 size=   45319kB time=00:21:04.44 bitrate= 293.6kbits/s dup=1 drop=0 speed=6.25x    frame=30402 fps=150 q=32.0 size=   45414kB time=00:21:08.20 bitrate= 293.4kbits/s dup=1 drop=0 speed=6.25x    frame=30477 fps=150 q=32.0 size=   45487kB time=00:21:11.31 bitrate= 293.1kbits/s dup=1 drop=0 speed=6.25x    frame=30540 fps=150 q=32.0 size=   45616kB time=00:21:13.96 bitrate= 293.3kbits/s dup=1 drop=0 speed=6.25x    frame=30633 fps=150 q=32.0 size=   45717kB time=00:21:17.80 bitrate= 293.1kbits/s dup=1 drop=0 speed=6.25x    frame=30739 fps=150 q=32.0 size=   45785kB time=00:21:22.24 bitrate= 292.5kbits/s dup=1 drop=0 speed=6.26x    frame=30844 fps=150 q=32.0 size=   45871kB time=00:21:26.63 bitrate= 292.1kbits/s dup=1 drop=0 speed=6.26x    frame=30917 fps=150 q=32.0 size=   45957kB time=00:21:29.66 bitrate= 291.9kbits/s dup=1 drop=0 speed=6.26x    frame=30969 fps=150 q=32.0 size=   46065kB time=00:21:31.84 bitrate= 292.1kbits/s dup=1 drop=0 speed=6.26x    frame=31017 fps=150 q=32.0 size=   46158kB time=00:21:33.84 bitrate= 292.2kbits/s dup=1 drop=0 speed=6.25x    frame=31064 fps=150 q=32.0 size=   46285kB time=00:21:35.76 bitrate= 292.6kbits/s dup=1 drop=0 speed=6.24x    frame=31100 fps=149 q=32.0 size=   46412kB time=00:21:37.30 bitrate= 293.1kbits/s dup=1 drop=0 speed=6.24x    frame=31141 fps=149 q=32.0 size=   46546kB time=00:21:39.00 bitrate= 293.5kbits/s dup=1 drop=0 speed=6.23x    frame=31179 fps=149 q=32.0 size=   46665kB time=00:21:40.58 bitrate= 293.9kbits/s dup=1 drop=0 speed=6.22x    frame=31220 fps=149 q=32.0 size=   46783kB time=00:21:42.29 bitrate= 294.3kbits/s dup=1 drop=0 speed=6.21x    frame=31264 fps=149 q=32.0 size=   46909kB time=00:21:44.12 bitrate= 294.7kbits/s dup=1 drop=0 speed=6.21x    frame=31305 fps=149 q=32.0 size=   47048kB time=00:21:45.83 bitrate= 295.2kbits/s dup=1 drop=0 speed= 6.2x    frame=31343 fps=148 q=32.0 size=   47132kB time=00:21:47.41 bitrate= 295.3kbits/s dup=1 drop=0 speed=6.19x    frame=31372 fps=148 q=32.0 size=   47270kB time=00:21:48.60 bitrate= 295.9kbits/s dup=1 drop=0 speed=6.18x    frame=31392 fps=148 q=32.0 size=   47357kB time=00:21:49.46 bitrate= 296.3kbits/s dup=1 drop=0 speed=6.17x    frame=31420 fps=148 q=32.0 size=   47467kB time=00:21:50.61 bitrate= 296.7kbits/s dup=1 drop=0 speed=6.16x    frame=31478 fps=148 q=32.0 size=   47604kB time=00:21:53.04 bitrate= 297.0kbits/s dup=1 drop=0 speed=6.16x    frame=31552 fps=148 q=32.0 size=   47680kB time=00:21:56.11 bitrate= 296.8kbits/s dup=1 drop=0 speed=6.16x    frame=31635 fps=148 q=32.0 size=   47814kB time=00:21:59.57 bitrate= 296.8kbits/s dup=1 drop=0 speed=6.16x    frame=31704 fps=148 q=32.0 size=   47913kB time=00:22:02.47 bitrate= 296.8kbits/s dup=1 drop=0 speed=6.16x    frame=31767 fps=148 q=32.0 size=   48052kB time=00:22:05.12 bitrate= 297.1kbits/s dup=1 drop=0 speed=6.16x    frame=31813 fps=148 q=32.0 size=   48167kB time=00:22:07.04 bitrate= 297.3kbits/s dup=1 drop=0 speed=6.15x    frame=31861 fps=147 q=32.0 size=   48304kB time=00:22:09.00 bitrate= 297.7kbits/s dup=1 drop=0 speed=6.15x    frame=31935 fps=147 q=32.0 size=   48451kB time=00:22:12.11 bitrate= 298.0kbits/s dup=1 drop=0 speed=6.15x    frame=32002 fps=147 q=32.0 size=   48550kB time=00:22:14.89 bitrate= 297.9kbits/s dup=1 drop=0 speed=6.15x    frame=32055 fps=147 q=32.0 size=   48679kB time=00:22:17.15 bitrate= 298.2kbits/s dup=1 drop=0 speed=6.14x    frame=32108 fps=147 q=32.0 size=   48777kB time=00:22:19.32 bitrate= 298.3kbits/s dup=1 drop=0 speed=6.14x    frame=32175 fps=147 q=32.0 size=   48937kB time=00:22:22.14 bitrate= 298.7kbits/s dup=1 drop=0 speed=6.14x    frame=32219 fps=147 q=32.0 size=   49075kB time=00:22:23.93 bitrate= 299.1kbits/s dup=1 drop=0 speed=6.13x    frame=32270 fps=147 q=32.0 size=   49195kB time=00:22:26.07 bitrate= 299.4kbits/s dup=1 drop=0 speed=6.13x    frame=32331 fps=147 q=32.0 size=   49311kB time=00:22:28.63 bitrate= 299.5kbits/s dup=1 drop=0 speed=6.12x    frame=32372 fps=147 q=32.0 size=   49427kB time=00:22:30.33 bitrate= 299.9kbits/s dup=1 drop=0 speed=6.12x    frame=32423 fps=147 q=32.0 size=   49552kB time=00:22:32.47 bitrate= 300.1kbits/s dup=1 drop=0 speed=6.11x    frame=32480 fps=146 q=32.0 size=   49655kB time=00:22:34.85 bitrate= 300.2kbits/s dup=1 drop=0 speed=6.11x    frame=32524 fps=146 q=32.0 size=   49774kB time=00:22:36.65 bitrate= 300.6kbits/s dup=1 drop=0 speed= 6.1x    frame=32566 fps=146 q=32.0 size=   49931kB time=00:22:38.44 bitrate= 301.1kbits/s dup=1 drop=0 speed= 6.1x    frame=32620 fps=146 q=32.0 size=   50059kB time=00:22:40.66 bitrate= 301.4kbits/s dup=1 drop=0 speed=6.09x    frame=32682 fps=146 q=32.0 size=   50150kB time=00:22:43.26 bitrate= 301.4kbits/s dup=1 drop=0 speed=6.09x    frame=32751 fps=146 q=32.0 size=   50249kB time=00:22:46.16 bitrate= 301.3kbits/s dup=1 drop=0 speed=6.09x    frame=32815 fps=146 q=32.0 size=   50341kB time=00:22:48.81 bitrate= 301.3kbits/s dup=1 drop=0 speed=6.09x    frame=32869 fps=146 q=32.0 size=   50458kB time=00:22:51.11 bitrate= 301.5kbits/s dup=1 drop=0 speed=6.08x    frame=32918 fps=146 q=32.0 size=   50531kB time=00:22:53.12 bitrate= 301.5kbits/s dup=1 drop=0 speed=6.08x    frame=33012 fps=146 q=32.0 size=   50627kB time=00:22:57.00 bitrate= 301.2kbits/s dup=1 drop=0 speed=6.08x    frame=33118 fps=146 q=32.0 size=   50763kB time=00:23:01.44 bitrate= 301.0kbits/s dup=1 drop=0 speed=6.09x    frame=33212 fps=146 q=32.0 size=   50874kB time=00:23:05.36 bitrate= 300.8kbits/s dup=1 drop=0 speed=6.09x    frame=33319 fps=146 q=32.0 size=   50975kB time=00:23:09.84 bitrate= 300.5kbits/s dup=1 drop=0 speed= 6.1x    frame=33419 fps=146 q=32.0 size=   51084kB time=00:23:14.02 bitrate= 300.2kbits/s dup=1 drop=0 speed= 6.1x    frame=33516 fps=146 q=32.0 size=   51163kB time=00:23:18.03 bitrate= 299.8kbits/s dup=1 drop=0 speed=6.11x    frame=33606 fps=147 q=32.0 size=   51250kB time=00:23:21.79 bitrate= 299.5kbits/s dup=1 drop=0 speed=6.11x    frame=33697 fps=147 q=32.0 size=   51353kB time=00:23:25.59 bitrate= 299.3kbits/s dup=1 drop=0 speed=6.11x    frame=33762 fps=147 q=32.0 size=   51452kB time=00:23:28.32 bitrate= 299.3kbits/s dup=1 drop=0 speed=6.11x    frame=33835 fps=147 q=32.0 size=   51595kB time=00:23:31.35 bitrate= 299.5kbits/s dup=1 drop=0 speed=6.11x    frame=33926 fps=147 q=32.0 size=   51668kB time=00:23:35.14 bitrate= 299.1kbits/s dup=1 drop=0 speed=6.12x    frame=33994 fps=147 q=32.0 size=   51783kB time=00:23:38.00 bitrate= 299.2kbits/s dup=1 drop=0 speed=6.11x    frame=34078 fps=147 q=32.0 size=   51870kB time=00:23:41.46 bitrate= 298.9kbits/s dup=1 drop=0 speed=6.12x    frame=34157 fps=147 q=32.0 size=   51964kB time=00:23:44.79 bitrate= 298.8kbits/s dup=1 drop=0 speed=6.12x    frame=34219 fps=147 q=32.0 size=   52118kB time=00:23:47.39 bitrate= 299.1kbits/s dup=1 drop=0 speed=6.12x    frame=34287 fps=147 q=32.0 size=   52229kB time=00:23:50.16 bitrate= 299.2kbits/s dup=1 drop=0 speed=6.11x    frame=34340 fps=146 q=32.0 size=   52320kB time=00:23:52.42 bitrate= 299.2kbits/s dup=1 drop=0 speed=6.11x    frame=34403 fps=146 q=32.0 size=   52405kB time=00:23:55.07 bitrate= 299.1kbits/s dup=1 drop=0 speed=6.11x    frame=34444 fps=146 q=32.0 size=   52533kB time=00:23:56.77 bitrate= 299.5kbits/s dup=1 drop=0 speed= 6.1x    frame=34507 fps=146 q=32.0 size=   52659kB time=00:23:59.38 bitrate= 299.7kbits/s dup=1 drop=0 speed= 6.1x    frame=34600 fps=146 q=32.0 size=   52766kB time=00:24:03.30 bitrate= 299.5kbits/s dup=1 drop=0 speed= 6.1x    frame=34684 fps=146 q=32.0 size=   52857kB time=00:24:06.76 bitrate= 299.3kbits/s dup=1 drop=0 speed=6.11x    frame=34778 fps=146 q=32.0 size=   52926kB time=00:24:10.68 bitrate= 298.9kbits/s dup=1 drop=0 speed=6.11x    frame=34837 fps=146 q=32.0 size=   53035kB time=00:24:13.16 bitrate= 299.0kbits/s dup=1 drop=0 speed=6.11x    frame=34934 fps=147 q=32.0 size=   53158kB time=00:24:17.21 bitrate= 298.8kbits/s dup=1 drop=0 speed=6.11x    frame=35105 fps=147 q=32.0 size=   53257kB time=00:24:24.34 bitrate= 297.9kbits/s dup=1 drop=0 speed=6.13x    [mp4 @ 0x41804e0] Starting second pass: moving the moov atom to the beginning of the file
frame=35242 fps=147 q=-1.0 Lsize=   54192kB time=00:24:29.76 bitrate= 302.0kbits/s dup=1 drop=0 speed=6.14x    
video:43831kB audio:9525kB subtitle:0kB other streams:0kB global headers:0kB muxing overhead: 1.566189%
[libx264 @ 0x41894c0] frame I:337   Avg QP:22.00  size: 18729
[libx264 @ 0x41894c0] frame P:11765 Avg QP:24.80  size:  2634
[libx264 @ 0x41894c0] frame B:23140 Avg QP:29.88  size:   328
[libx264 @ 0x41894c0] consecutive B-frames:  4.3% 10.9% 40.3% 44.4%
[libx264 @ 0x41894c0] mb I  I16..4: 28.8% 40.4% 30.8%
[libx264 @ 0x41894c0] mb P  I16..4:  3.9%  3.4%  1.4%  P16..4: 28.9%  4.0%  4.0%  0.2%  0.0%    skip:54.2%
[libx264 @ 0x41894c0] mb B  I16..4:  0.2%  0.2%  0.1%  B16..8: 11.2%  0.8%  0.1%  direct: 0.4%  skip:86.9%  L0:42.7% L1:55.5% BI: 1.8%
[libx264 @ 0x41894c0] 8x8 transform intra:39.2% inter:53.7%
[libx264 @ 0x41894c0] coded y,uvDC,uvAC intra: 30.4% 56.8% 11.4% inter: 2.0% 4.7% 0.1%
[libx264 @ 0x41894c0] i16 v,h,dc,p: 43% 29% 17% 12%
[libx264 @ 0x41894c0] i8 v,h,dc,ddl,ddr,vr,hd,vl,hu: 21% 17% 45%  3%  2%  3%  3%  3%  3%
[libx264 @ 0x41894c0] i4 v,h,dc,ddl,ddr,vr,hd,vl,hu: 29% 19% 20%  5%  5%  6%  5%  5%  4%
[libx264 @ 0x41894c0] i8c dc,h,v,p: 45% 25% 23%  8%
[libx264 @ 0x41894c0] Weighted P-Frames: Y:1.0% UV:0.7%
[libx264 @ 0x41894c0] ref P L0: 64.7%  8.6% 10.9%  4.1%  3.2%  3.0%  2.9%  1.7%  0.9%  0.0%
[libx264 @ 0x41894c0] ref B L0: 81.4%  7.1%  4.7%  2.1%  1.9%  1.5%  1.2%
[libx264 @ 0x41894c0] ref B L1: 92.9%  7.1%
[libx264 @ 0x41894c0] kb/s:244.28
